<svg width="25" height="26" viewBox="0 0 25 26" fill="current" xmlns="http://www.w3.org/2000/svg">
<path d="M8.69552 19.5H4.3477C4.03973 19.5 3.78176 19.396 3.57379 19.188C3.36509 18.9807 3.26074 18.7236 3.26074 18.4167C3.26074 18.1097 3.36509 17.8526 3.57379 17.6453C3.78176 17.4373 4.03973 17.3333 4.3477 17.3333H8.69552C9.0035 17.3333 9.26183 17.4373 9.47052 17.6453C9.6785 17.8526 9.78248 18.1097 9.78248 18.4167C9.78248 18.7236 9.6785 18.9807 9.47052 19.188C9.26183 19.396 9.0035 19.5 8.69552 19.5ZM21.739 8.66667H4.3477C4.03973 8.66667 3.78176 8.56303 3.57379 8.35575C3.36509 8.14775 3.26074 7.89028 3.26074 7.58333C3.26074 7.27639 3.36509 7.01892 3.57379 6.81092C3.78176 6.60364 4.03973 6.5 4.3477 6.5H21.739C22.047 6.5 22.3049 6.60364 22.5129 6.81092C22.7216 7.01892 22.826 7.27639 22.826 7.58333C22.826 7.89028 22.7216 8.14775 22.5129 8.35575C22.3049 8.56303 22.047 8.66667 21.739 8.66667ZM15.2173 14.0833H4.3477C4.03973 14.0833 3.78176 13.9793 3.57379 13.7713C3.36509 13.5641 3.26074 13.3069 3.26074 13C3.26074 12.6931 3.36509 12.4356 3.57379 12.2276C3.78176 12.0203 4.03973 11.9167 4.3477 11.9167H15.2173C15.5252 11.9167 15.7836 12.0203 15.9923 12.2276C16.2002 12.4356 16.3042 12.6931 16.3042 13C16.3042 13.3069 16.2002 13.5641 15.9923 13.7713C15.7836 13.9793 15.5252 14.0833 15.2173 14.0833Z" 
fill="current"/>
</svg>
