<svg width="24" height="25" viewBox="0 0 24 25" fill="current" xmlns="http://www.w3.org/2000/svg">
<path fill-rule="evenodd" clip-rule="evenodd" d="M2.352 10.2C2.24149 10.294 2.15276 10.411 2.09197 10.5427C2.03119 10.6745 1.9998 10.8179 2 10.963V21.5C2 21.7652 2.10536 22.0196 2.29289 22.2071C2.48043 22.3947 2.73478 22.5 3 22.5H9C9.26522 22.5 9.51957 22.3947 9.70711 22.2071C9.89464 22.0196 10 21.7652 10 21.5V16.6C10 16.5735 10.0105 16.5481 10.0293 16.5293C10.048 16.5105 10.0735 16.5 10.1 16.5H13.9C13.9265 16.5 13.952 16.5105 13.9707 16.5293C13.9895 16.5481 14 16.5735 14 16.6V21.5C14 21.7652 14.1054 22.0196 14.2929 22.2071C14.4804 22.3947 14.7348 22.5 15 22.5H21C21.2652 22.5 21.5196 22.3947 21.7071 22.2071C21.8946 22.0196 22 21.7652 22 21.5V10.963C22.0001 10.8181 21.9686 10.6749 21.9078 10.5433C21.847 10.4117 21.7584 10.2949 21.648 10.201L12.648 2.55101C12.4671 2.39715 12.2374 2.31265 12 2.31265C11.7626 2.31265 11.5329 2.39715 11.352 2.55101L2.352 10.201V10.2Z" 
fill="current"/>
</svg>
