<svg width="19" height="19" viewBox="0 0 19 19" fill="current" xmlns="http://www.w3.org/2000/svg">
<path d="M15.3056 0H2.11111C0.95 0 0 0.95 0 2.11111V8.13833C0 12.1811 3.11389 15.7172 7.15667 15.8333C11.3367 15.96 14.7778 12.6033 14.7778 8.44444V7.38889H15.3056C17.3428 7.38889 19 5.73167 19 3.69444C19 1.65722 17.3428 0 15.3056 0ZM12.6667 2.11111V5.27778H2.11111V2.11111H12.6667ZM15.3056 5.27778H14.7778V2.11111H15.3056C16.1817 2.11111 16.8889 2.81833 16.8889 3.69444C16.8889 4.57056 16.1817 5.27778 15.3056 5.27778ZM0 16.8889H16.8889V19H0V16.8889Z" 
fill="current"/>
</svg>
