<svg width="14" height="12" viewBox="0 0 14 12" fill="current" xmlns="http://www.w3.org/2000/svg">
<path d="M5.13653 0.213135L3.98811 1.46824H1.99876C1.30845 1.46824 0.743652 2.03304 0.743652 2.72335V10.254C0.743652 10.9443 1.30845 11.5091 1.99876 11.5091H12.0396C12.7299 11.5091 13.2947 10.9443 13.2947 10.254V2.72335C13.2947 2.03304 12.7299 1.46824 12.0396 1.46824H10.0503L8.90186 0.213135H5.13653ZM7.0192 9.62645C5.28715 9.62645 3.88142 8.22073 3.88142 6.48868C3.88142 4.75663 5.28715 3.35091 7.0192 3.35091C8.75125 3.35091 10.157 4.75663 10.157 6.48868C10.157 8.22073 8.75125 9.62645 7.0192 9.62645Z" fill="current"/>
</svg>
