<svg width="20" height="19" viewBox="0 0 20 19" fill="current" xmlns="http://www.w3.org/2000/svg">
<path d="M1.97507 14.6818C1.63966 14.6818 1.39524 14.5739 1.24182 14.358C1.08899 14.1421 1.07091 13.8758 1.18757 13.5591L3.7032 6.90912C3.7907 6.66442 3.95841 6.45916 4.20632 6.29334C4.45424 6.1281 4.70945 6.04548 4.97195 6.04548C5.21987 6.04548 5.47157 6.1281 5.72707 6.29334C5.98199 6.45916 6.1532 6.66442 6.2407 6.90912L8.7782 13.5807C8.89487 13.883 8.87678 14.1421 8.72395 14.358C8.57053 14.5739 8.32612 14.6818 7.9907 14.6818C7.83028 14.6818 7.67366 14.6315 7.52082 14.5307C7.36741 14.4299 7.26153 14.3004 7.2032 14.1421L6.65632 12.6091H3.28757L2.78445 14.1205C2.72612 14.2788 2.62053 14.4118 2.4677 14.5195C2.31428 14.6277 2.15007 14.6818 1.97507 14.6818ZM3.81257 11.1409H6.08757L5.03757 7.9023H4.90632L3.81257 11.1409ZM12.0594 14.6818C11.7678 14.6818 11.5161 14.5773 11.3043 14.3683C11.0932 14.1599 10.9876 13.9118 10.9876 13.6239C10.9876 13.4656 11.024 13.2819 11.0969 13.0729C11.1699 12.8645 11.2574 12.7027 11.3594 12.5875L15.4063 7.60002H11.9501C11.7313 7.60002 11.5455 7.52431 11.3927 7.37289C11.2393 7.22204 11.1626 7.03866 11.1626 6.82275C11.1626 6.60684 11.2393 6.42318 11.3927 6.27175C11.5455 6.1209 11.7313 6.04548 11.9501 6.04548H16.2594C16.5511 6.04548 16.8028 6.14969 17.0146 6.35811C17.2257 6.56711 17.3313 6.82275 17.3313 7.12502C17.3313 7.28336 17.2987 7.46328 17.2333 7.6648C17.1674 7.86631 17.0834 8.02465 16.9813 8.1398L12.9563 13.1273H16.5876C16.8063 13.1273 16.9924 13.2027 17.1458 13.3536C17.2987 13.505 17.3751 13.6887 17.3751 13.9046C17.3751 14.1205 17.2987 14.3041 17.1458 14.4556C16.9924 14.6064 16.8063 14.6818 16.5876 14.6818H12.0594ZM7.92507 4.31821C7.72091 4.31821 7.58237 4.23184 7.50945 4.05911C7.43653 3.88639 7.47299 3.72805 7.61882 3.58412L9.19382 2.02957C9.22299 2.00078 9.32507 1.9576 9.50007 1.90002C9.52924 1.90002 9.63132 1.94321 9.80632 2.02957L11.3813 3.58412C11.5272 3.72805 11.5636 3.88639 11.4907 4.05911C11.4178 4.23184 11.2792 4.31821 11.0751 4.31821H7.92507ZM9.50007 18.8273C9.47091 18.8273 9.36882 18.7841 9.19382 18.6978L7.61882 17.1432C7.47299 16.9993 7.43653 16.8409 7.50945 16.6682C7.58237 16.4955 7.72091 16.4091 7.92507 16.4091H11.0751C11.2792 16.4091 11.4178 16.4955 11.4907 16.6682C11.5636 16.8409 11.5272 16.9993 11.3813 17.1432L9.80632 18.6978C9.77716 18.7265 9.67507 18.7697 9.50007 18.8273Z" 
fill="current"/>
</svg>
