<svg width="9" height="5" viewBox="0 0 9 5" fill="current" xmlns="http://www.w3.org/2000/svg">
<path d="M4.5 5C4.39238 5 4.28825 4.98092 4.18762 4.94275C4.08646 4.90458 4.00224 4.85369 3.93498 4.79008L0.221973 1.27863C0.0739907 1.13868 0 0.960559 0 0.744274C0 0.527989 0.0739907 0.349872 0.221973 0.209923C0.369955 0.0699743 0.558296 0 0.786995 0C1.01569 0 1.20404 0.0699743 1.35202 0.209923L4.5 3.18702L7.64798 0.209923C7.79596 0.0699743 7.9843 0 8.213 0C8.4417 0 8.63004 0.0699743 8.77803 0.209923C8.92601 0.349872 9 0.527989 9 0.744274C9 0.960559 8.92601 1.13868 8.77803 1.27863L5.06502 4.79008C4.9843 4.86641 4.89686 4.92036 4.80269 4.95191C4.70852 4.98397 4.60762 5 4.5 5Z" 
fill="current"/>
</svg>
