<svg width="14" height="14" viewBox="0 0 14 14" fill="none" xmlns="http://www.w3.org/2000/svg">
<g id="Access time" clip-path="url(#clip0_2322_119)">
<path id="Vector" d="M6.994 1.16675C3.774 1.16675 1.1665 3.78008 1.1665 7.00008C1.1665 10.2201 3.774 12.8334 6.994 12.8334C10.2198 12.8334 12.8332 10.2201 12.8332 7.00008C12.8332 3.78008 10.2198 1.16675 6.994 1.16675ZM6.99984 11.6667C4.4215 11.6667 2.33317 9.57841 2.33317 7.00008C2.33317 4.42175 4.4215 2.33341 6.99984 2.33341C9.57817 2.33341 11.6665 4.42175 11.6665 7.00008C11.6665 9.57841 9.57817 11.6667 6.99984 11.6667Z" fill="black"/>
<path id="Vector_2" d="M7.2915 4.08325H6.4165V7.58325L9.479 9.42075L9.9165 8.70325L7.2915 7.14575V4.08325Z" fill="black"/>
</g>
<defs>
<clipPath id="clip0_2322_119">
<rect width="14" height="14" fill="white"/>
</clipPath>
</defs>
</svg>
