<svg width="31" height="31" viewBox="0 0 31 31" fill="current" xmlns="http://www.w3.org/2000/svg">
<g id="Lists">
<path id="Vector" d="M12.9168 25.8334C12.2064 25.8334 11.5983 25.5805 11.0924 25.0746C10.5864 24.5687 10.3335 23.9605 10.3335 23.2501C10.3335 22.5397 10.5864 21.9315 11.0924 21.4256C11.5983 20.9197 12.2064 20.6667 12.9168 20.6667H25.8335C26.5439 20.6667 27.1521 20.9197 27.658 21.4256C28.1639 21.9315 28.4168 22.5397 28.4168 23.2501C28.4168 23.9605 28.1639 24.5687 27.658 25.0746C27.1521 25.5805 26.5439 25.8334 25.8335 25.8334H12.9168ZM12.9168 18.0834C12.2064 18.0834 11.5983 17.8305 11.0924 17.3246C10.5864 16.8187 10.3335 16.2105 10.3335 15.5001C10.3335 14.7897 10.5864 14.1815 11.0924 13.6756C11.5983 13.1697 12.2064 12.9167 12.9168 12.9167H25.8335C26.5439 12.9167 27.1521 13.1697 27.658 13.6756C28.1639 14.1815 28.4168 14.7897 28.4168 15.5001C28.4168 16.2105 28.1639 16.8187 27.658 17.3246C27.1521 17.8305 26.5439 18.0834 25.8335 18.0834H12.9168ZM12.9168 10.3334C12.2064 10.3334 11.5983 10.0805 11.0924 9.57456C10.5864 9.06866 10.3335 8.4605 10.3335 7.75008C10.3335 7.03966 10.5864 6.4315 11.0924 5.9256C11.5983 5.4197 12.2064 5.16675 12.9168 5.16675H25.8335C26.5439 5.16675 27.1521 5.4197 27.658 5.9256C28.1639 6.4315 28.4168 7.03966 28.4168 7.75008C28.4168 8.4605 28.1639 9.06866 27.658 9.57456C27.1521 10.0805 26.5439 10.3334 25.8335 10.3334H12.9168ZM5.16683 10.3334C4.45641 10.3334 3.84825 10.0805 3.34235 9.57456C2.83645 9.06866 2.5835 8.4605 2.5835 7.75008C2.5835 7.03966 2.83645 6.4315 3.34235 5.9256C3.84825 5.4197 4.45641 5.16675 5.16683 5.16675C5.87725 5.16675 6.48541 5.4197 6.99131 5.9256C7.49721 6.4315 7.75016 7.03966 7.75016 7.75008C7.75016 8.4605 7.49721 9.06866 6.99131 9.57456C6.48541 10.0805 5.87725 10.3334 5.16683 10.3334ZM5.16683 18.0834C4.45641 18.0834 3.84825 17.8305 3.34235 17.3246C2.83645 16.8187 2.5835 16.2105 2.5835 15.5001C2.5835 14.7897 2.83645 14.1815 3.34235 13.6756C3.84825 13.1697 4.45641 12.9167 5.16683 12.9167C5.87725 12.9167 6.48541 13.1697 6.99131 13.6756C7.49721 14.1815 7.75016 14.7897 7.75016 15.5001C7.75016 16.2105 7.49721 16.8187 6.99131 17.3246C6.48541 17.8305 5.87725 18.0834 5.16683 18.0834ZM5.16683 25.8334C4.45641 25.8334 3.84825 25.5805 3.34235 25.0746C2.83645 24.5687 2.5835 23.9605 2.5835 23.2501C2.5835 22.5397 2.83645 21.9315 3.34235 21.4256C3.84825 20.9197 4.45641 20.6667 5.16683 20.6667C5.87725 20.6667 6.48541 20.9197 6.99131 21.4256C7.49721 21.9315 7.75016 22.5397 7.75016 23.2501C7.75016 23.9605 7.49721 24.5687 6.99131 25.0746C6.48541 25.5805 5.87725 25.8334 5.16683 25.8334Z" fill="current"/>
</g>
</svg>
