<svg width="24" height="25" viewBox="0 0 24 25" fill="current" xmlns="http://www.w3.org/2000/svg">
<path d="M2.52632 25C1.83158 25 1.23705 24.7554 0.742737 24.2663C0.247579 23.7763 0 23.1875 0 22.5V2.5C0 1.8125 0.247579 1.22375 0.742737 0.73375C1.23705 0.244583 1.83158 0 2.52632 0H11.5895C11.9263 0 12.2476 0.0625001 12.5533 0.1875C12.8581 0.3125 13.1263 0.489583 13.3579 0.71875L19.4842 6.78125C19.7158 7.01042 19.8947 7.27583 20.0211 7.5775C20.1474 7.88 20.2105 8.19792 20.2105 8.53125V11.375L10.1053 21.3438V25H2.52632ZM13.2632 25C13.0947 25 12.9474 24.9375 12.8211 24.8125C12.6947 24.6875 12.6316 24.5417 12.6316 24.375V22.875C12.6316 22.7083 12.6686 22.5417 12.7427 22.375C12.816 22.2083 12.9053 22.0729 13.0105 21.9688L19.1368 15.875L21.8526 18.5L15.6947 24.625C15.5895 24.75 15.4526 24.8437 15.2842 24.9062C15.1158 24.9688 14.9474 25 14.7789 25H13.2632ZM22.7684 17.625L20.0842 14.9688L20.9684 14.0938C21.2211 13.8437 21.5263 13.7188 21.8842 13.7188C22.2421 13.7188 22.5368 13.8437 22.7684 14.0938L23.6526 15C23.8842 15.25 24 15.5467 24 15.89C24 16.2342 23.8842 16.5208 23.6526 16.75L22.7684 17.625ZM12.6316 8.75H17.6842L11.3684 2.5V7.5C11.3684 7.85417 11.4897 8.15083 11.7322 8.39C11.9739 8.63 12.2737 8.75 12.6316 8.75Z" 
fill="current"/>
</svg>
