<svg width="16" height="17" viewBox="0 0 16 17" fill="current" xmlns="http://www.w3.org/2000/svg">
<path d="M4.29981 16.125C3.91648 16.425 3.52481 16.4333 3.12481 16.15C2.72481 15.8666 2.59148 15.4916 2.72481 15.025L4.14981 10.4L0.524809 7.82498C0.124809 7.54164 0.00414245 7.16664 0.162809 6.69998C0.320809 6.23331 0.641476 5.99998 1.12481 5.99998H5.59981L7.04981 1.19998C7.13314 0.966642 7.26248 0.787309 7.43781 0.661976C7.61248 0.537309 7.79981 0.474976 7.99981 0.474976C8.19981 0.474976 8.38714 0.537309 8.56181 0.661976C8.73714 0.787309 8.86648 0.966642 8.94981 1.19998L10.3998 5.99998H14.8748C15.3581 5.99998 15.6791 6.23331 15.8378 6.69998C15.9958 7.16664 15.8748 7.54164 15.4748 7.82498L11.8498 10.4L13.2748 15.025C13.4081 15.4916 13.2748 15.8666 12.8748 16.15C12.4748 16.4333 12.0831 16.425 11.6998 16.125L7.99981 13.3L4.29981 16.125Z" 
fill="current"/>
</svg>
