<svg width="24" height="25" viewBox="0 0 24 25" fill="current" xmlns="http://www.w3.org/2000/svg">
<path fill-rule="evenodd" clip-rule="evenodd" d="M16.5 7C16.5 8.19347 16.0259 9.33807 15.182 10.182C14.3381 11.0259 13.1935 11.5 12 11.5C10.8065 11.5 9.66193 11.0259 8.81802 10.182C7.97411 9.33807 7.5 8.19347 7.5 7C7.5 5.80653 7.97411 4.66193 8.81802 3.81802C9.66193 2.97411 10.8065 2.5 12 2.5C13.1935 2.5 14.3381 2.97411 15.182 3.81802C16.0259 4.66193 16.5 5.80653 16.5 7ZM12 13.5C9.183 13.5 6.594 14.299 4.739 15.806C2.99 17.227 2 19.186 2 21.325V21.5C2 21.7652 2.10536 22.0196 2.29289 22.2071C2.48043 22.3946 2.73478 22.5 3 22.5H21C21.2652 22.5 21.5196 22.3946 21.7071 22.2071C21.8946 22.0196 22 21.7652 22 21.5V21.324C22 19.186 21.009 17.226 19.261 15.806C17.406 14.3 14.817 13.5 12 13.5Z" 
fill="current"/>
</svg>
