<svg width="35" height="35" viewBox="0 0 14 14" fill="current" xmlns="http://www.w3.org/2000/svg">
<path d="M3.50383 13.146C3.18438 13.398 2.858 13.405 2.52466 13.167C2.19133 12.929 2.08022 12.614 2.19133 12.222L3.37883 8.337L0.357995 6.174C0.0246619 5.936 -0.0758937 5.621 0.0563286 5.229C0.187995 4.837 0.455217 4.641 0.857995 4.641H4.58716L5.7955 0.609C5.86494 0.413 5.97272 0.26236 6.11883 0.15708C6.26438 0.0523602 6.4205 0 6.58716 0C6.75383 0 6.90994 0.0523602 7.0555 0.15708C7.20161 0.26236 7.30938 0.413 7.37883 0.609L8.58716 4.641H12.3163C12.7191 4.641 12.9866 4.837 13.1188 5.229C13.2505 5.621 13.1497 5.936 12.8163 6.174L9.7955 8.337L10.983 12.222C11.0941 12.614 10.983 12.929 10.6497 13.167C10.3163 13.405 9.98994 13.398 9.6705 13.146L6.58716 10.773L3.50383 13.146Z" fill="current"/>
</svg>
